<svg width="40" height="31" viewBox="0 0 40 31" fill="none" xmlns="http://www.w3.org/2000/svg">
<g id="&#240;&#159;&#166;&#134; icon &#34;envelope closed&#34;">
<path id="Vector" d="M2 0.457947C0.89543 0.457947 0 1.35338 0 2.45795V4.17552C0 4.93307 0.428005 5.62559 1.10557 5.96438L18.9201 14.8717C19.4832 15.1532 20.1459 15.1532 20.709 14.8717L38.5236 5.96438C39.2011 5.62559 39.6291 4.93307 39.6291 4.17552V2.45795C39.6291 1.35338 38.7337 0.457947 37.6291 0.457947H2ZM2.89443 11.8124C1.56462 11.1475 0 12.1145 0 13.6013V28.1798C0 29.2844 0.895431 30.1798 2 30.1798H37.6291C38.7337 30.1798 39.6291 29.2844 39.6291 28.1798V13.6013C39.6291 12.1145 38.0645 11.1475 36.7347 11.8124L20.709 19.8253C20.1459 20.1068 19.4832 20.1068 18.9201 19.8253L2.89443 11.8124Z" fill="#3970FF"/>
</g>
</svg>
